<svg width="483" height="103" viewBox="0 0 483 103" fill="none" xmlns="http://www.w3.org/2000/svg">
<path d="M11.3188 102.56C8.4255 102.56 5.85883 101.86 3.61883 100.46C1.37883 99.06 0.258828 96.7267 0.258828 93.46C0.258828 88.3267 1.33216 83.1 3.47883 77.78C5.71883 72.46 8.4255 67.2333 11.5988 62.1C14.8655 56.8733 18.0855 51.7867 21.2588 46.84C24.5255 41.8933 27.2322 37.18 29.3788 32.7C31.6188 28.22 32.7388 24.0667 32.7388 20.24C32.7388 17.16 31.9922 15.62 30.4988 15.62C29.4722 15.62 28.3055 16.46 26.9988 18.14C25.6922 19.7267 24.7588 22.1067 24.1988 25.28L22.6588 25C22.6588 19.68 23.9188 15.2 26.4388 11.56C28.9588 7.82666 32.1788 5.02666 36.0988 3.16C40.0188 1.29333 44.0322 0.359998 48.1388 0.359998C52.8988 0.359998 57.3322 1.71333 61.4388 4.42C65.6388 7.12666 68.5322 11.42 70.1188 17.3C70.7722 19.6333 71.2388 22.2467 71.5188 25.14C71.8922 28.0333 72.1255 30.5533 72.2188 32.7C72.3122 34.7533 72.3588 35.78 72.3588 35.78C72.5455 43.34 72.6855 49.7333 72.7788 54.96C72.9655 60.1867 73.2455 64.5733 73.6188 68.12C73.9922 71.6667 74.5055 74.6533 75.1588 77.08C75.8122 79.4133 76.6522 81.3267 77.6788 82.82C78.7988 84.22 80.1988 84.92 81.8788 84.92C83.4655 84.92 84.8188 84.4533 85.9388 83.52C87.1522 82.5867 87.9455 81.7 88.3188 80.86L89.2988 81.56C89.2988 85.8533 88.4588 89.5867 86.7788 92.76C85.0988 95.9333 82.9055 98.36 80.1988 100.04C77.4922 101.72 74.6455 102.56 71.6588 102.56C68.7655 102.56 65.9188 101.72 63.1188 100.04C60.4122 98.2667 58.0322 95.56 55.9788 91.92C53.9255 88.28 52.5722 83.5667 51.9188 77.78C49.0255 77.5933 46.1788 77.4533 43.3788 77.36C40.6722 77.1733 38.1988 77.08 35.9588 77.08C34.4655 77.08 33.0188 77.1267 31.6188 77.22C30.3122 77.22 29.0055 77.2667 27.6988 77.36C26.8588 80.2533 26.1588 83.1933 25.5988 86.18C25.1322 89.0733 24.8988 91.92 24.8988 94.72C24.8988 96.8667 23.4988 98.7333 20.6988 100.32C17.8988 101.813 14.7722 102.56 11.3188 102.56ZM32.3188 64.34C34.6522 63.6867 37.1255 63.2667 39.7388 63.08C42.3522 62.8 45.1522 62.66 48.1388 62.66H51.2188C51.0322 55.7533 50.7522 48.66 50.3788 41.38C50.0988 34.1 48.9322 27.3333 46.8788 21.08C46.1322 27.8 44.2655 34.8467 41.2788 42.22C38.2922 49.5933 35.3055 56.9667 32.3188 64.34ZM106.876 102.56C103.423 102.56 100.25 101.16 97.3565 98.36C94.5565 95.56 93.1565 91.1267 93.1565 85.06C93.1565 78.9933 93.7165 73.16 94.8365 67.56C96.0498 61.8667 97.4032 56.4067 98.8965 51.18C100.483 45.9533 101.836 41.0067 102.956 36.34C104.17 31.58 104.776 27.1 104.776 22.9C103.376 22.34 102.07 22.06 100.856 22.06C99.1765 22.06 97.7765 22.5733 96.6565 23.6C95.5365 24.6267 94.6498 26.0267 93.9965 27.8L92.5965 27.38C92.6898 20.8467 93.6232 15.6667 95.3965 11.84C97.2632 7.91999 99.6432 5.11999 102.536 3.43999C105.43 1.75999 108.416 0.919991 111.496 0.919991C116.163 0.919991 120.316 2.45999 123.956 5.54C127.69 8.52667 131.003 12.6333 133.896 17.86C136.883 23.0867 139.45 29.0133 141.596 35.64C143.836 42.1733 145.75 49.0333 147.336 56.22C148.923 63.3133 150.183 70.3133 151.116 77.22C151.676 73.4867 152.236 68.9133 152.796 63.5C153.45 58.0867 154.01 52.3933 154.476 46.42C154.943 40.4467 155.176 34.7533 155.176 29.34C155.176 25.42 155.036 21.8733 154.756 18.7C154.476 15.4333 154.01 12.6333 153.356 10.3V9.17999C155.783 6.47333 158.21 4.42 160.636 3.02C163.156 1.61999 165.49 0.919991 167.636 0.919991C170.81 0.919991 173.423 2.31999 175.476 5.12C177.623 7.82666 178.696 11.7 178.696 16.74C178.696 20.4733 178.183 25.0467 177.156 30.46C176.13 35.78 174.916 41.4733 173.516 47.54C172.116 53.6067 170.856 59.58 169.736 65.46C168.71 71.2467 168.15 76.4733 168.056 81.14C168.056 82.4467 168.15 83.8467 168.336 85.34C168.523 86.8333 169.503 87.58 171.276 87.58C171.37 87.9533 171.416 88.2333 171.416 88.42C171.416 88.6067 171.416 88.7933 171.416 88.98C171.323 92.5267 169.876 95.7 167.076 98.5C164.276 101.207 160.543 102.56 155.876 102.56C152.236 102.56 149.156 101.627 146.636 99.76C144.116 97.8933 142.016 95.42 140.336 92.34C138.656 89.1667 137.21 85.62 135.996 81.7C134.876 77.6867 133.803 73.58 132.776 69.38C130.91 62.1 128.95 55.1933 126.896 48.66C124.936 42.0333 122.276 35.9667 118.916 30.46C119.103 34.1933 118.963 38.3 118.496 42.78C118.03 47.1667 117.516 51.6467 116.956 56.22C116.49 60.7 116.256 65.04 116.256 69.24C116.256 72.9733 116.583 76.4267 117.236 79.6C117.89 82.68 119.056 85.4333 120.736 87.86C120.736 92.4333 119.29 96.0267 116.396 98.64C113.503 101.253 110.33 102.56 106.876 102.56ZM220.34 102.56C217.447 102.56 214.88 101.813 212.64 100.32C210.493 98.8267 209.467 96.5867 209.56 93.6C209.747 88.3733 210.12 82.5867 210.68 76.24C211.333 69.8933 212.08 63.4533 212.92 56.92C213.76 50.2933 214.6 43.9467 215.44 37.88C216.373 31.8133 217.213 26.4 217.96 21.64C216.28 21.4533 214.647 21.3133 213.06 21.22C211.473 21.1267 210.027 21.08 208.72 21.08C204.8 21.08 201.253 21.4533 198.08 22.2C195 22.9467 192.387 24.2533 190.24 26.12C190.24 20.24 190.707 15.48 191.64 11.84C192.667 8.10666 194.487 5.4 197.1 3.72C199.807 2.04 203.727 1.2 208.86 1.2C212.593 1.2 216.747 1.52666 221.32 2.17999C225.987 2.74 230.7 3.34666 235.46 3.99999C240.22 4.65333 244.653 4.98 248.76 4.98C252.12 4.98 255.107 4.65333 257.72 3.99999C260.427 3.34666 262.48 2.18 263.88 0.499997C265.933 1.15333 267.52 2.59999 268.64 4.84C269.76 6.98667 270.32 9.36667 270.32 11.98C270.32 14.3133 269.807 16.6 268.78 18.84C267.753 20.9867 266.12 22.8067 263.88 24.3C261.64 25.7 258.607 26.4 254.78 26.4C253.007 26.4 250.813 26.26 248.2 25.98C245.68 25.6067 242.973 25.2333 240.08 24.86C239.053 30.46 237.98 37.18 236.86 45.02C235.833 52.7667 234.947 61.12 234.2 70.08C233.547 79.04 233.127 88.14 232.94 97.38C231.26 99.1533 229.253 100.46 226.92 101.3C224.68 102.14 222.487 102.56 220.34 102.56ZM279.314 102.7C276.7 102.7 274.367 101.627 272.314 99.48C270.354 97.24 269.374 93.1333 269.374 87.16C269.374 86.1333 269.374 85.2467 269.374 84.5C269.467 83.66 269.514 83.0533 269.514 82.68C269.887 78.9467 270.4 74.3267 271.054 68.82C271.8 63.22 272.64 57.3867 273.574 51.32C274.507 45.16 275.44 39.2333 276.374 33.54C277.4 27.8467 278.334 22.9 279.174 18.7C280.014 14.4067 280.714 11.4667 281.274 9.87999C282.3 7.08 284.12 4.88666 286.734 3.29999C289.44 1.61999 292.194 0.779993 294.994 0.779993C297.42 0.779993 299.614 1.48 301.574 2.88C303.627 4.28 305.027 6.66 305.774 10.02C305.214 11.8867 304.327 15.2 303.114 19.96C301.9 24.6267 300.594 30.3667 299.194 37.18C297.794 43.9933 296.44 51.5067 295.134 59.72C293.92 67.9333 292.94 76.52 292.194 85.48C292.1 87.0667 291.96 88.9333 291.774 91.08C291.587 93.1333 291.447 95.2333 291.354 97.38C290.234 98.5933 288.554 99.8067 286.314 101.02C284.074 102.14 281.74 102.7 279.314 102.7ZM348.114 102.84C342.234 102.84 337.147 101.673 332.854 99.34C328.654 96.9133 325.154 93.6467 322.354 89.54C319.647 85.34 317.641 80.6267 316.334 75.4C315.121 70.08 314.607 64.5733 314.794 58.88C315.167 48.7067 317.034 39.9333 320.394 32.56C323.754 25.1867 328.001 19.12 333.134 14.36C338.267 9.59999 343.774 6.09999 349.654 3.86C355.627 1.52666 361.367 0.359998 366.874 0.359998C371.541 0.359998 375.741 1.15333 379.474 2.73999C383.301 4.23333 386.334 6.47333 388.574 9.46C390.814 12.3533 391.934 15.9 391.934 20.1C391.934 23.3667 390.954 26.54 388.994 29.62C387.127 32.6067 384.234 35.08 380.314 37.04C376.487 38.9067 371.541 39.84 365.474 39.84C366.501 36.8533 367.247 34.24 367.714 32C368.181 29.76 368.414 27.8467 368.414 26.26C368.414 22.9933 367.667 20.8 366.174 19.68C364.681 18.4667 362.814 17.86 360.574 17.86C357.867 17.86 355.301 18.84 352.874 20.8C350.447 22.76 348.254 25.42 346.294 28.78C344.427 32.0467 342.934 35.6867 341.814 39.7C340.694 43.7133 340.041 47.7733 339.854 51.88C339.481 62.24 340.974 70.08 344.334 75.4C347.694 80.72 352.034 83.38 357.354 83.38C361.461 83.38 365.987 81.7 370.934 78.34C375.974 74.98 380.921 69.8933 385.774 63.08L387.594 63.92C386.381 72.32 383.721 79.4133 379.614 85.2C375.507 90.9867 370.654 95.3733 365.054 98.36C359.547 101.347 353.901 102.84 348.114 102.84ZM433.219 102.98C426.965 102.98 421.552 101.86 416.979 99.62C412.499 97.2867 408.765 94.16 405.779 90.24C402.885 86.2267 400.692 81.7 399.199 76.66C397.799 71.62 397.099 66.3 397.099 60.7C397.099 53.6067 398.172 46.5133 400.319 39.42C402.559 32.3267 405.779 25.84 409.979 19.96C414.272 14.08 419.499 9.36666 425.659 5.81999C431.819 2.18 438.865 0.359998 446.799 0.359998C453.052 0.359998 458.419 1.52666 462.899 3.86C467.472 6.09999 471.205 9.22666 474.099 13.24C477.085 17.16 479.279 21.64 480.679 26.68C482.172 31.72 482.919 37.04 482.919 42.64C482.919 49.64 481.799 56.7333 479.559 63.92C477.412 71.0133 474.192 77.5 469.899 83.38C465.699 89.26 460.519 94.02 454.359 97.66C448.199 101.207 441.152 102.98 433.219 102.98ZM438.399 85.2C441.665 85.2 444.512 84.08 446.939 81.84C449.365 79.6 451.372 76.66 452.959 73.02C454.639 69.2867 455.899 65.18 456.739 60.7C457.579 56.22 457.999 51.6933 457.999 47.12C457.999 42.08 457.439 37.3667 456.319 32.98C455.292 28.5 453.612 24.9067 451.279 22.2C449.039 19.4 446.099 18 442.459 18C439.285 18 436.439 19.12 433.919 21.36C431.399 23.5067 429.252 26.4467 427.479 30.18C425.705 33.82 424.352 37.88 423.419 42.36C422.579 46.7467 422.159 51.18 422.159 55.66C422.159 60.7933 422.765 65.6 423.979 70.08C425.192 74.56 427.012 78.2 429.439 81C431.865 83.8 434.852 85.2 438.399 85.2Z" fill="white"/>
</svg>
