<svg width="484" height="103" viewBox="0 0 484 103" fill="none" xmlns="http://www.w3.org/2000/svg">
<path d="M12.02 102.56C9.12667 102.56 6.56 101.86 4.32 100.46C2.08 99.06 0.96 96.7267 0.96 93.46C0.96 88.3267 2.03333 83.1 4.18 77.78C6.42 72.46 9.12667 67.2333 12.3 62.1C15.5667 56.8733 18.7867 51.7867 21.96 46.84C25.2267 41.8933 27.9333 37.18 30.08 32.7C32.32 28.22 33.44 24.0667 33.44 20.24C33.44 17.16 32.6933 15.62 31.2 15.62C30.1733 15.62 29.0067 16.46 27.7 18.14C26.3933 19.7267 25.46 22.1067 24.9 25.28L23.36 25C23.36 19.68 24.62 15.2 27.14 11.56C29.66 7.82666 32.88 5.02666 36.8 3.16C40.72 1.29333 44.7333 0.359998 48.84 0.359998C53.6 0.359998 58.0333 1.71333 62.14 4.42C66.34 7.12666 69.2333 11.42 70.82 17.3C71.4733 19.6333 71.94 22.2467 72.22 25.14C72.5933 28.0333 72.8267 30.5533 72.92 32.7C73.0133 34.7533 73.06 35.78 73.06 35.78C73.2467 43.34 73.3867 49.7333 73.48 54.96C73.6667 60.1867 73.9467 64.5733 74.32 68.12C74.6933 71.6667 75.2067 74.6533 75.86 77.08C76.5133 79.4133 77.3533 81.3267 78.38 82.82C79.5 84.22 80.9 84.92 82.58 84.92C84.1667 84.92 85.52 84.4533 86.64 83.52C87.8533 82.5867 88.6467 81.7 89.02 80.86L90 81.56C90 85.8533 89.16 89.5867 87.48 92.76C85.8 95.9333 83.6067 98.36 80.9 100.04C78.1933 101.72 75.3467 102.56 72.36 102.56C69.4667 102.56 66.62 101.72 63.82 100.04C61.1133 98.2667 58.7333 95.56 56.68 91.92C54.6267 88.28 53.2733 83.5667 52.62 77.78C49.7267 77.5933 46.88 77.4533 44.08 77.36C41.3733 77.1733 38.9 77.08 36.66 77.08C35.1667 77.08 33.72 77.1267 32.32 77.22C31.0133 77.22 29.7067 77.2667 28.4 77.36C27.56 80.2533 26.86 83.1933 26.3 86.18C25.8333 89.0733 25.6 91.92 25.6 94.72C25.6 96.8667 24.2 98.7333 21.4 100.32C18.6 101.813 15.4733 102.56 12.02 102.56ZM33.02 64.34C35.3533 63.6867 37.8267 63.2667 40.44 63.08C43.0533 62.8 45.8533 62.66 48.84 62.66H51.92C51.7333 55.7533 51.4533 48.66 51.08 41.38C50.8 34.1 49.6333 27.3333 47.58 21.08C46.8333 27.8 44.9667 34.8467 41.98 42.22C38.9933 49.5933 36.0067 56.9667 33.02 64.34ZM107.578 102.56C104.124 102.56 100.951 101.16 98.0577 98.36C95.2577 95.56 93.8577 91.1267 93.8577 85.06C93.8577 78.9933 94.4177 73.16 95.5377 67.56C96.751 61.8667 98.1043 56.4067 99.5977 51.18C101.184 45.9533 102.538 41.0067 103.658 36.34C104.871 31.58 105.478 27.1 105.478 22.9C104.078 22.34 102.771 22.06 101.558 22.06C99.8777 22.06 98.4777 22.5733 97.3577 23.6C96.2377 24.6267 95.351 26.0267 94.6977 27.8L93.2977 27.38C93.391 20.8467 94.3243 15.6667 96.0977 11.84C97.9643 7.91999 100.344 5.11999 103.238 3.43999C106.131 1.75999 109.118 0.919991 112.198 0.919991C116.864 0.919991 121.018 2.45999 124.658 5.54C128.391 8.52667 131.704 12.6333 134.598 17.86C137.584 23.0867 140.151 29.0133 142.298 35.64C144.538 42.1733 146.451 49.0333 148.038 56.22C149.624 63.3133 150.884 70.3133 151.818 77.22C152.378 73.4867 152.938 68.9133 153.498 63.5C154.151 58.0867 154.711 52.3933 155.178 46.42C155.644 40.4467 155.878 34.7533 155.878 29.34C155.878 25.42 155.738 21.8733 155.458 18.7C155.178 15.4333 154.711 12.6333 154.058 10.3V9.17999C156.484 6.47333 158.911 4.42 161.338 3.02C163.858 1.61999 166.191 0.919991 168.338 0.919991C171.511 0.919991 174.124 2.31999 176.178 5.12C178.324 7.82666 179.398 11.7 179.398 16.74C179.398 20.4733 178.884 25.0467 177.858 30.46C176.831 35.78 175.618 41.4733 174.218 47.54C172.818 53.6067 171.558 59.58 170.438 65.46C169.411 71.2467 168.851 76.4733 168.758 81.14C168.758 82.4467 168.851 83.8467 169.038 85.34C169.224 86.8333 170.204 87.58 171.978 87.58C172.071 87.9533 172.118 88.2333 172.118 88.42C172.118 88.6067 172.118 88.7933 172.118 88.98C172.024 92.5267 170.578 95.7 167.778 98.5C164.978 101.207 161.244 102.56 156.578 102.56C152.938 102.56 149.858 101.627 147.338 99.76C144.818 97.8933 142.718 95.42 141.038 92.34C139.358 89.1667 137.911 85.62 136.698 81.7C135.578 77.6867 134.504 73.58 133.478 69.38C131.611 62.1 129.651 55.1933 127.598 48.66C125.638 42.0333 122.978 35.9667 119.618 30.46C119.804 34.1933 119.664 38.3 119.198 42.78C118.731 47.1667 118.218 51.6467 117.658 56.22C117.191 60.7 116.958 65.04 116.958 69.24C116.958 72.9733 117.284 76.4267 117.938 79.6C118.591 82.68 119.758 85.4333 121.438 87.86C121.438 92.4333 119.991 96.0267 117.098 98.64C114.204 101.253 111.031 102.56 107.578 102.56ZM221.041 102.56C218.148 102.56 215.581 101.813 213.341 100.32C211.194 98.8267 210.168 96.5867 210.261 93.6C210.448 88.3733 210.821 82.5867 211.381 76.24C212.034 69.8933 212.781 63.4533 213.621 56.92C214.461 50.2933 215.301 43.9467 216.141 37.88C217.074 31.8133 217.914 26.4 218.661 21.64C216.981 21.4533 215.348 21.3133 213.761 21.22C212.174 21.1267 210.728 21.08 209.421 21.08C205.501 21.08 201.954 21.4533 198.781 22.2C195.701 22.9467 193.088 24.2533 190.941 26.12C190.941 20.24 191.408 15.48 192.341 11.84C193.368 8.10666 195.188 5.4 197.801 3.72C200.508 2.04 204.428 1.2 209.561 1.2C213.294 1.2 217.448 1.52666 222.021 2.17999C226.688 2.74 231.401 3.34666 236.161 3.99999C240.921 4.65333 245.354 4.98 249.461 4.98C252.821 4.98 255.808 4.65333 258.421 3.99999C261.128 3.34666 263.181 2.18 264.581 0.499997C266.634 1.15333 268.221 2.59999 269.341 4.84C270.461 6.98667 271.021 9.36667 271.021 11.98C271.021 14.3133 270.508 16.6 269.481 18.84C268.454 20.9867 266.821 22.8067 264.581 24.3C262.341 25.7 259.308 26.4 255.481 26.4C253.708 26.4 251.514 26.26 248.901 25.98C246.381 25.6067 243.674 25.2333 240.781 24.86C239.754 30.46 238.681 37.18 237.561 45.02C236.534 52.7667 235.648 61.12 234.901 70.08C234.248 79.04 233.828 88.14 233.641 97.38C231.961 99.1533 229.954 100.46 227.621 101.3C225.381 102.14 223.188 102.56 221.041 102.56ZM280.015 102.7C277.402 102.7 275.068 101.627 273.015 99.48C271.055 97.24 270.075 93.1333 270.075 87.16C270.075 86.1333 270.075 85.2467 270.075 84.5C270.168 83.66 270.215 83.0533 270.215 82.68C270.588 78.9467 271.102 74.3267 271.755 68.82C272.502 63.22 273.342 57.3867 274.275 51.32C275.208 45.16 276.142 39.2333 277.075 33.54C278.102 27.8467 279.035 22.9 279.875 18.7C280.715 14.4067 281.415 11.4667 281.975 9.87999C283.002 7.08 284.822 4.88666 287.435 3.29999C290.142 1.61999 292.895 0.779993 295.695 0.779993C298.122 0.779993 300.315 1.48 302.275 2.88C304.328 4.28 305.728 6.66 306.475 10.02C305.915 11.8867 305.028 15.2 303.815 19.96C302.602 24.6267 301.295 30.3667 299.895 37.18C298.495 43.9933 297.142 51.5067 295.835 59.72C294.622 67.9333 293.642 76.52 292.895 85.48C292.802 87.0667 292.662 88.9333 292.475 91.08C292.288 93.1333 292.148 95.2333 292.055 97.38C290.935 98.5933 289.255 99.8067 287.015 101.02C284.775 102.14 282.442 102.7 280.015 102.7ZM348.815 102.84C342.935 102.84 337.848 101.673 333.555 99.34C329.355 96.9133 325.855 93.6467 323.055 89.54C320.348 85.34 318.342 80.6267 317.035 75.4C315.822 70.08 315.308 64.5733 315.495 58.88C315.868 48.7067 317.735 39.9333 321.095 32.56C324.455 25.1867 328.702 19.12 333.835 14.36C338.968 9.59999 344.475 6.09999 350.355 3.86C356.328 1.52666 362.068 0.359998 367.575 0.359998C372.242 0.359998 376.442 1.15333 380.175 2.73999C384.002 4.23333 387.035 6.47333 389.275 9.46C391.515 12.3533 392.635 15.9 392.635 20.1C392.635 23.3667 391.655 26.54 389.695 29.62C387.828 32.6067 384.935 35.08 381.015 37.04C377.188 38.9067 372.242 39.84 366.175 39.84C367.202 36.8533 367.948 34.24 368.415 32C368.882 29.76 369.115 27.8467 369.115 26.26C369.115 22.9933 368.368 20.8 366.875 19.68C365.382 18.4667 363.515 17.86 361.275 17.86C358.568 17.86 356.002 18.84 353.575 20.8C351.148 22.76 348.955 25.42 346.995 28.78C345.128 32.0467 343.635 35.6867 342.515 39.7C341.395 43.7133 340.742 47.7733 340.555 51.88C340.182 62.24 341.675 70.08 345.035 75.4C348.395 80.72 352.735 83.38 358.055 83.38C362.162 83.38 366.688 81.7 371.635 78.34C376.675 74.98 381.622 69.8933 386.475 63.08L388.295 63.92C387.082 72.32 384.422 79.4133 380.315 85.2C376.208 90.9867 371.355 95.3733 365.755 98.36C360.248 101.347 354.602 102.84 348.815 102.84ZM433.92 102.98C427.667 102.98 422.253 101.86 417.68 99.62C413.2 97.2867 409.467 94.16 406.48 90.24C403.587 86.2267 401.393 81.7 399.9 76.66C398.5 71.62 397.8 66.3 397.8 60.7C397.8 53.6067 398.873 46.5133 401.02 39.42C403.26 32.3267 406.48 25.84 410.68 19.96C414.973 14.08 420.2 9.36666 426.36 5.81999C432.52 2.18 439.567 0.359998 447.5 0.359998C453.753 0.359998 459.12 1.52666 463.6 3.86C468.173 6.09999 471.907 9.22666 474.8 13.24C477.787 17.16 479.98 21.64 481.38 26.68C482.873 31.72 483.62 37.04 483.62 42.64C483.62 49.64 482.5 56.7333 480.26 63.92C478.113 71.0133 474.893 77.5 470.6 83.38C466.4 89.26 461.22 94.02 455.06 97.66C448.9 101.207 441.853 102.98 433.92 102.98ZM439.1 85.2C442.367 85.2 445.213 84.08 447.64 81.84C450.067 79.6 452.073 76.66 453.66 73.02C455.34 69.2867 456.6 65.18 457.44 60.7C458.28 56.22 458.7 51.6933 458.7 47.12C458.7 42.08 458.14 37.3667 457.02 32.98C455.993 28.5 454.313 24.9067 451.98 22.2C449.74 19.4 446.8 18 443.16 18C439.987 18 437.14 19.12 434.62 21.36C432.1 23.5067 429.953 26.4467 428.18 30.18C426.407 33.82 425.053 37.88 424.12 42.36C423.28 46.7467 422.86 51.18 422.86 55.66C422.86 60.7933 423.467 65.6 424.68 70.08C425.893 74.56 427.713 78.2 430.14 81C432.567 83.8 435.553 85.2 439.1 85.2Z" fill="black"/>
</svg>
